<?xml version="1.0" encoding="UTF-8" standalone="no"?>
<!-- Generator: Adobe Illustrator 16.0.0, SVG Export Plug-In . SVG Version: 6.00 Build 0)  -->

<svg
   xmlns:dc="http://purl.org/dc/elements/1.1/"
   xmlns:cc="http://creativecommons.org/ns#"
   xmlns:rdf="http://www.w3.org/1999/02/22-rdf-syntax-ns#"
   xmlns:svg="http://www.w3.org/2000/svg"
   xmlns="http://www.w3.org/2000/svg"
   xmlns:sodipodi="http://sodipodi.sourceforge.net/DTD/sodipodi-0.dtd"
   xmlns:inkscape="http://www.inkscape.org/namespaces/inkscape"
   version="1.1"
   id="Layer_1"
   x="0px"
   y="0px"
   width="512px"
   height="512px"
   viewBox="0 0 512 512"
   enable-background="new 0 0 512 512"
   xml:space="preserve"
   inkscape:version="0.92.2 (5c3e80d, 2017-08-06)"
   sodipodi:docname="app.svg"><metadata
     id="metadata9"><rdf:RDF><cc:Work
         rdf:about=""><dc:format>image/svg+xml</dc:format><dc:type
           rdf:resource="http://purl.org/dc/dcmitype/StillImage" /></cc:Work></rdf:RDF></metadata><defs
     id="defs7" /><sodipodi:namedview
     pagecolor="#ffffff"
     bordercolor="#666666"
     borderopacity="1"
     objecttolerance="10"
     gridtolerance="10"
     guidetolerance="10"
     inkscape:pageopacity="0"
     inkscape:pageshadow="2"
     inkscape:window-width="1751"
     inkscape:window-height="958"
     id="namedview5"
     showgrid="false"
     inkscape:zoom="1.3037281"
     inkscape:cx="270.49554"
     inkscape:cy="258.56726"
     inkscape:window-x="123"
     inkscape:window-y="22"
     inkscape:window-maximized="0"
     inkscape:current-layer="Layer_1" /><path
     style="opacity:1;fill:#ffffff;fill-opacity:1;stroke:#000000;stroke-width:0.878;stroke-linecap:butt;stroke-miterlimit:4;stroke-dasharray:none;stroke-dashoffset:0;stroke-opacity:1"
     d="m 255.17828,1.3998439 c -22.47111,-0.0036 -38.72657,2.474354 -58.79883,8.9589841 -29.11722,9.40674 -54.59381,25.062566 -76.60742,47.076172 -30.622334,30.622326 -49.604214,69.6268 -54.884764,112.77735 -1.948932,15.92589 -1.177979,36.70737 1.908203,51.39258 10.071827,47.92551 41.534591,113.01567 87.230471,180.46289 36.07908,53.25281 75.77433,98.77831 94.12305,107.94727 2.52412,1.26132 5.75455,2.29297 7.17773,2.29297 15.42034,0 60.84012,-50.15408 104.44727,-115.33594 41.15421,-61.51532 70.63646,-121.49551 81.74414,-166.30078 3.90508,-15.752 5.09567,-25.08356 5.07617,-39.80469 C 446.53758,147.93641 432.16901,107.5275 404.47906,72.417426 398.9516,65.408762 382.49513,48.976314 375.33258,43.315859 351.02501,24.105949 323.04591,10.965982 293.76617,5.0053119 280.38073,2.2803499 270.99884,1.4023829 255.17828,1.3998439 Z m -4.52539,40.9511711 c 0.98025,-0.111231 1.39685,21.022069 1.47656,73.138685 l 0.11914,77.1289 -5.78124,4.73633 c -6.75406,5.53535 -8.56571,11.45988 -5.58985,18.2793 7.47115,17.12056 33.80694,12.55447 33.78125,-5.85742 -0.008,-5.24096 -4.98945,-12.93886 -9.70508,-14.9961 l -3.74023,-1.63086 0.11914,-77.39453 c 0.085,-55.775718 0.55311,-76.195099 1.67969,-73.10157 7.91322,21.729339 24.97468,60.74398 36.29297,82.99024 15.97931,31.40751 31.29596,54.43595 45.67773,68.67969 l 10.11328,10.01563 -9.60156,11.44726 c -25.72751,30.6701 -49.91016,68.12318 -49.91016,77.30078 v 3.54102 H 256.73102 217.8775 v -3.54102 c 0,-9.1776 -24.18273,-46.63068 -49.91015,-77.30078 l -9.60157,-11.44726 10.11328,-10.01563 c 14.38175,-14.24374 29.69649,-37.27218 45.67579,-68.67969 11.31827,-22.24626 28.37975,-61.260901 36.29296,-82.99024 0.0704,-0.193368 0.13973,-0.295319 0.20508,-0.302735 z M 208.64703,304.49946 h 48.08399 48.08398 l 2.85742,3.37696 c 3.73528,4.41671 3.60244,6.7679 -0.60547,10.79687 l -3.46093,3.31445 3.46093,2.95118 c 4.25223,3.6265 4.42708,7.96764 0.47266,11.7539 -2.86426,2.74246 -4.98055,2.86133 -50.80859,2.86133 -45.82805,0 -47.9463,-0.11883 -50.81055,-2.86133 -3.95443,-3.78626 -3.77956,-8.12741 0.47266,-11.7539 l 3.46093,-2.95118 -3.46093,-3.31445 c -4.2079,-4.02897 -4.3388,-6.38016 -0.60352,-10.79687 z"
     id="path3333"
     inkscape:connector-curvature="0" /></svg>