<?xml version="1.0" encoding="UTF-8" standalone="no"?>
<!-- Generator: Adobe Illustrator 16.0.0, SVG Export Plug-In . SVG Version: 6.00 Build 0)  -->

<svg
   xmlns:dc="http://purl.org/dc/elements/1.1/"
   xmlns:cc="http://creativecommons.org/ns#"
   xmlns:rdf="http://www.w3.org/1999/02/22-rdf-syntax-ns#"
   xmlns:svg="http://www.w3.org/2000/svg"
   xmlns="http://www.w3.org/2000/svg"
   xmlns:sodipodi="http://sodipodi.sourceforge.net/DTD/sodipodi-0.dtd"
   xmlns:inkscape="http://www.inkscape.org/namespaces/inkscape"
   version="1.1"
   id="Layer_1"
   x="0px"
   y="0px"
   width="512px"
   height="512px"
   viewBox="0 0 512 512"
   enable-background="new 0 0 512 512"
   xml:space="preserve"
   inkscape:version="0.92.2 (5c3e80d, 2017-08-06)"
   sodipodi:docname="app_black.svg"><metadata
     id="metadata9"><rdf:RDF><cc:Work
         rdf:about=""><dc:format>image/svg+xml</dc:format><dc:type
           rdf:resource="http://purl.org/dc/dcmitype/StillImage" /><dc:title /></cc:Work></rdf:RDF></metadata><defs
     id="defs7" /><sodipodi:namedview
     pagecolor="#ffffff"
     bordercolor="#666666"
     borderopacity="1"
     objecttolerance="10"
     gridtolerance="10"
     guidetolerance="10"
     inkscape:pageopacity="0"
     inkscape:pageshadow="2"
     inkscape:window-width="1649"
     inkscape:window-height="966"
     id="namedview5"
     showgrid="false"
     inkscape:zoom="0.92187498"
     inkscape:cx="246.98038"
     inkscape:cy="300.2849"
     inkscape:window-x="43"
     inkscape:window-y="24"
     inkscape:window-maximized="0"
     inkscape:current-layer="Layer_1" /><path
     style="opacity:1;fill:#000000;fill-opacity:1;stroke:#000000;stroke-width:0.87800002;stroke-linecap:butt;stroke-miterlimit:4;stroke-dasharray:none;stroke-dashoffset:0;stroke-opacity:1"
     d="m 259.67366,0.9070747 c -22.47111,-0.0036 -38.72657,2.474355 -58.79883,8.958985 C 171.75761,19.2728 146.28102,34.928626 124.26741,56.942232 93.645071,87.564563 74.663201,126.56902 69.382651,169.71957 c -1.94894,15.92589 -1.17798,36.70737 1.9082,51.39258 10.07183,47.92551 41.534589,113.01567 87.230469,180.46289 36.07908,53.25281 75.77433,98.77831 94.12305,107.94727 2.52412,1.26132 5.75455,2.29297 7.17773,2.29297 15.42034,0 60.84012,-50.15408 104.44727,-115.33594 41.15421,-61.51532 70.63646,-121.49551 81.74414,-166.30078 3.90508,-15.752 5.09567,-25.08356 5.07617,-39.80469 -0.0567,-42.93024 -14.42529,-83.33915 -42.11524,-118.449216 -5.52746,-7.00866 -21.98393,-23.441108 -29.14648,-29.101563 -24.30757,-19.20991 -52.28667,-32.349877 -81.56641,-38.3105473 -13.38544,-2.724963 -22.76733,-3.60293 -38.58789,-3.605469 z m -4.52539,40.9511723 c 0.98025,-0.111231 1.39685,21.022069 1.47656,73.138673 l 0.11914,77.1289 -5.78124,4.73633 c -6.75406,5.53535 -8.56571,11.45988 -5.58985,18.2793 7.47115,17.12056 33.80694,12.55447 33.78125,-5.85742 -0.008,-5.24096 -4.98945,-12.93886 -9.70508,-14.9961 l -3.74023,-1.63086 0.11914,-77.39453 c 0.085,-55.775706 0.55311,-76.195087 1.67969,-73.101558 7.91322,21.729339 24.97468,60.743968 36.29297,82.990228 15.97931,31.40751 31.29596,54.43595 45.67773,68.67969 l 10.11328,10.01563 -9.60156,11.44726 c -25.72751,30.6701 -49.91016,68.12318 -49.91016,77.30078 v 3.54102 H 261.2264 222.37288 v -3.54102 c 0,-9.1776 -24.18273,-46.63068 -49.91015,-77.30078 l -9.60157,-11.44726 10.11328,-10.01563 c 14.38175,-14.24374 29.69649,-37.27218 45.67579,-68.67969 11.31827,-22.24626 28.37975,-61.260889 36.29296,-82.990228 0.0704,-0.193368 0.13973,-0.295319 0.20508,-0.302735 z M 213.14241,304.00668 h 48.08399 48.08398 l 2.85742,3.37696 c 3.73528,4.41671 3.60244,6.7679 -0.60547,10.79687 l -3.46093,3.31445 3.46093,2.95118 c 4.25223,3.6265 4.42708,7.96764 0.47266,11.7539 -2.86426,2.74246 -4.98055,2.86133 -50.80859,2.86133 -45.82805,0 -47.9463,-0.11883 -50.81055,-2.86133 -3.95443,-3.78626 -3.77956,-8.12741 0.47266,-11.7539 l 3.46093,-2.95118 -3.46093,-3.31445 c -4.2079,-4.02897 -4.3388,-6.38016 -0.60352,-10.79687 z"
     id="path3333"
     inkscape:connector-curvature="0" /></svg>